# xmcd
#
# Track frame offsets: 
#        150
#        23068
#        53616
#        84033
#        101403
#        110930
#        115956
#        123574
#        134484
#        159155
#        185152
#        212926
#
# Disc length: 3122 seconds
#
# Revision: 0
# Processed by: cddbd v1.5.2PL0 Copyright (c) Steve Scherf et al.
# Submitted via: ExactAudioCopy v1.0b4
#
DISCID=a30c300c
DTITLE=Little Howlin' Wolf - Cool Truth
DYEAR=1985
DGENRE=Blues
TTITLE0=Cool Truth
TTITLE1=Rendezvous
TTITLE2=Mighty Love
TTITLE3=Ten Steps of a Broken Heart
TTITLE4=Shuk Schuck Shodi
TTITLE5=Hunt Song
TTITLE6=Bounty Song
TTITLE7=Hokomo Juju Man
TTITLE8=Soul Magrib
TTITLE9=Tears Were Fallin' Down Her Face
TTITLE10=Creoloe Belle
TTITLE11=War Song
EXTD=
EXTT0=
EXTT1=
EXTT2=
EXTT3=
EXTT4=
EXTT5=
EXTT6=
EXTT7=
EXTT8=
EXTT9=
EXTT10=
EXTT11=
PLAYORDER=
